<svg width="24.000000" height="24.000000" viewBox="0 0 24 24" fill="none" xmlns="http://www.w3.org/2000/svg" xmlns:xlink="http://www.w3.org/1999/xlink">
	<desc>
			Created with Pixso.
	</desc>
	<defs>
		<clipPath id="clip12_73">
			<rect id="solar:chef-hat-heart-line-duotone" width="9.600000" height="9.600000" transform="translate(7.199951 7.200195)" fill="white" fill-opacity="0"/>
		</clipPath>
	</defs>
	<circle id="Ellipse 3" cx="12.000000" cy="12.000000" r="11.500000" stroke="#CEAAD0" stroke-opacity="1.000000" stroke-width="1.000000"/>
	<rect id="solar:chef-hat-heart-line-duotone" width="9.600000" height="9.600000" transform="translate(7.199951 7.200195)" fill="#FFFFFF" fill-opacity="0"/>
	<g clip-path="url(#clip12_73)">
		<path id="Vector" d="M9.19 13.03L9.5 13.03C9.49 12.97 9.48 12.91 9.45 12.86C9.41 12.82 9.37 12.78 9.31 12.75L9.19 13.03ZM14.79 13.03L14.67 12.75C14.62 12.78 14.58 12.82 14.54 12.86C14.51 12.91 14.5 12.97 14.5 13.03L14.79 13.03ZM13.5 10C13.5 10.08 13.53 10.15 13.58 10.21C13.64 10.26 13.72 10.29 13.79 10.29C13.87 10.29 13.95 10.26 14.01 10.21C14.06 10.15 14.1 10.08 14.1 10L13.5 10ZM9.89 10C9.89 10.08 9.93 10.15 9.98 10.21C10.04 10.26 10.12 10.29 10.2 10.29C10.27 10.29 10.35 10.26 10.41 10.21C10.46 10.15 10.5 10.08 10.5 10L9.89 10ZM10 8.9C9.38 8.9 8.8 9.14 8.37 9.57C7.94 10 7.69 10.58 7.69 11.2L8.29 11.2C8.29 10.74 8.47 10.31 8.79 9.99C9.11 9.67 9.54 9.5 10 9.5L10 8.9ZM14 9.5C14.45 9.5 14.88 9.67 15.2 9.99C15.52 10.31 15.7 10.74 15.7 11.2L16.29 11.2C16.29 10.58 16.05 10 15.62 9.57C15.19 9.14 14.61 8.9 14 8.9L14 9.5ZM13.2 15.7L10.79 15.7L10.79 16.29L13.2 16.29L13.2 15.7ZM10.79 15.7C10.41 15.7 10.15 15.69 9.96 15.67C9.77 15.64 9.69 15.6 9.64 15.55L9.22 15.97C9.4 16.16 9.63 16.23 9.88 16.26C10.12 16.3 10.43 16.29 10.79 16.29L10.79 15.7ZM8.89 14.4C8.89 14.76 8.89 15.07 8.93 15.31C8.96 15.56 9.03 15.79 9.22 15.97L9.64 15.55C9.59 15.5 9.55 15.42 9.52 15.23C9.5 15.04 9.5 14.78 9.5 14.4L8.89 14.4ZM14.5 14.4C14.5 14.78 14.49 15.04 14.47 15.23C14.44 15.42 14.4 15.5 14.35 15.55L14.77 15.97C14.96 15.79 15.03 15.56 15.06 15.31C15.1 15.07 15.1 14.76 15.1 14.4L14.5 14.4ZM13.2 16.29C13.56 16.29 13.87 16.3 14.11 16.26C14.36 16.23 14.59 16.16 14.77 15.97L14.35 15.55C14.3 15.6 14.22 15.64 14.03 15.67C13.84 15.69 13.58 15.7 13.2 15.7L13.2 16.29ZM10 9.5C10.08 9.5 10.16 9.5 10.25 9.51L10.33 8.92C10.22 8.9 10.11 8.9 10 8.9L10 9.5ZM12 7.7C11.56 7.7 11.13 7.83 10.77 8.09C10.41 8.34 10.15 8.7 10.01 9.12L10.57 9.31C10.67 9.02 10.87 8.76 11.12 8.58C11.38 8.39 11.68 8.29 12 8.29L12 7.7ZM10.01 9.12C9.93 9.34 9.89 9.57 9.89 9.79L10.5 9.79C10.5 9.63 10.52 9.46 10.57 9.31L10.01 9.12ZM14 8.9C13.88 8.9 13.77 8.9 13.66 8.92L13.74 9.51C13.83 9.5 13.91 9.5 14 9.5L14 8.9ZM12 8.29C12.31 8.29 12.61 8.39 12.87 8.58C13.12 8.76 13.31 9.02 13.42 9.31L13.98 9.12C13.84 8.7 13.58 8.34 13.22 8.09C12.86 7.83 12.43 7.7 12 7.7L12 8.29ZM13.42 9.31C13.47 9.46 13.5 9.63 13.5 9.79L14.1 9.79C14.1 9.56 14.06 9.33 13.98 9.12L13.42 9.31L13.42 9.31ZM9.5 14.4L9.5 13.03L8.89 13.03L8.89 14.4L9.5 14.4ZM9.31 12.75C9.01 12.62 8.75 12.4 8.57 12.13C8.39 11.85 8.29 11.53 8.29 11.2L7.69 11.2C7.69 11.64 7.83 12.08 8.07 12.46C8.32 12.83 8.66 13.12 9.07 13.3L9.31 12.75ZM14.5 13.03L14.5 14.4L15.1 14.4L15.1 13.03L14.5 13.03ZM15.7 11.2C15.7 11.53 15.6 11.85 15.42 12.13C15.24 12.4 14.98 12.62 14.67 12.75L14.91 13.3C15.33 13.12 15.67 12.83 15.92 12.46C16.16 12.08 16.29 11.64 16.29 11.2L15.7 11.2ZM13.5 9.79L13.5 10L14.1 10L14.1 9.79L13.5 9.79ZM9.89 9.79L9.89 10L10.5 10L10.5 9.79L9.89 9.79Z" fill="#312C27" fill-opacity="1.000000" fill-rule="nonzero"/>
		<g opacity="0.500000">
			<path id="Vector" d="M12 11.19L11.79 11.41C11.84 11.46 11.92 11.49 12 11.49C12.07 11.49 12.15 11.46 12.2 11.41L12 11.19ZM11.79 12.42C11.62 12.3 11.44 12.14 11.3 11.98C11.15 11.81 11.1 11.68 11.1 11.59L10.5 11.59C10.5 11.9 10.67 12.18 10.85 12.38C11.03 12.59 11.25 12.77 11.43 12.9L11.79 12.42ZM11.1 11.59C11.1 11.36 11.2 11.26 11.29 11.23C11.39 11.2 11.58 11.21 11.79 11.41L12.2 10.98C11.87 10.66 11.46 10.54 11.09 10.67C10.72 10.8 10.5 11.16 10.5 11.59L11.1 11.59ZM12.56 12.9C12.74 12.77 12.96 12.59 13.15 12.38C13.32 12.18 13.5 11.9 13.5 11.59L12.9 11.59C12.9 11.68 12.84 11.81 12.69 11.98C12.55 12.15 12.37 12.3 12.2 12.42L12.56 12.9L12.56 12.9ZM13.5 11.59C13.5 11.16 13.27 10.8 12.9 10.67C12.53 10.54 12.12 10.66 11.79 10.98L12.2 11.41C12.41 11.21 12.6 11.2 12.7 11.23C12.79 11.26 12.9 11.36 12.9 11.59L13.5 11.59ZM11.43 12.9C11.58 13.01 11.75 13.15 12 13.15L12 12.55C11.99 12.55 11.98 12.55 11.96 12.54C11.9 12.5 11.84 12.46 11.79 12.42L11.43 12.9L11.43 12.9ZM12.2 12.42C12.15 12.46 12.09 12.5 12.03 12.54C12.01 12.55 12 12.55 12 12.55L12 13.15C12.24 13.15 12.41 13.01 12.56 12.9L12.2 12.42Z" fill="#312C27" fill-opacity="1.000000" fill-rule="nonzero"/>
		</g>
		<g opacity="0.500000">
			<path id="Vector" d="M9.19 14.4L14.79 14.4" stroke="#312C27" stroke-opacity="1.000000" stroke-width="1.500000" stroke-linejoin="round" stroke-linecap="round"/>
		</g>
	</g>
</svg>
