<svg viewBox="0 0 41 41" xmlns="http://www.w3.org/2000/svg" xmlns:xlink="http://www.w3.org/1999/xlink" width="41.000000" height="41.000000" fill="none">
	<defs>
		<linearGradient id="paint_linear_4" x1="20.6122284" x2="20.6122284" y1="1.64013672" y2="39.3697472" gradientUnits="userSpaceOnUse">
			<stop stop-color="rgb(255,198,25)" offset="0" stop-opacity="1" />
			<stop stop-color="rgb(246,144,32)" offset="0.494791657" stop-opacity="1" />
			<stop stop-color="rgb(234,66,42)" offset="1" stop-opacity="1" />
		</linearGradient>
	</defs>
	<rect id="icons8_stopwatch 1" width="41.000000" height="41.000000" x="0.000000" y="0.000000" fill="rgb(255,255,255)" fill-opacity="0" />
	<path id="Vector" d="M18.8601 1.64014L18.8601 4.99061C10.122 5.81847 3.27051 13.1877 3.27051 22.1401C3.27051 31.6459 10.9944 39.3697 20.5001 39.3697C30.0058 39.3697 37.7297 31.6459 37.7297 22.1401C37.7297 13.1877 30.8782 5.81847 22.1401 4.99061L22.1401 1.64014L18.8601 1.64014ZM34.4754 2.46014L32.1563 4.7792L33.2149 5.83783L31.9801 7.07424L33.3398 8.43396L34.5747 7.19756L35.6349 8.25779L37.9539 5.93873L34.4754 2.46014ZM20.5001 6.56975C29.1093 6.56975 36.0705 13.5309 36.0705 22.1401C36.0705 30.7493 29.1093 37.7105 20.5001 37.7105C11.8909 37.7105 4.92973 30.7493 4.92973 22.1401C4.92973 13.5309 11.8909 6.56975 20.5001 6.56975ZM20.4873 9.81932C20.2675 9.82267 20.0581 9.91309 19.905 10.0707C19.7518 10.2284 19.6675 10.4404 19.6705 10.6601L19.6705 19.8259C19.1935 19.9968 18.7809 20.3108 18.4891 20.725C18.1972 21.1392 18.0405 21.6334 18.0401 22.1401C18.0408 22.6466 18.1977 23.1404 18.4895 23.5543C18.7813 23.9682 19.1938 24.282 19.6705 24.4528L19.6705 26.2401C19.6705 26.4602 19.7579 26.6712 19.9135 26.8268C20.0691 26.9823 20.2801 27.0697 20.5001 27.0697C20.7201 27.0697 20.9312 26.9823 21.0867 26.8268C21.2423 26.6712 21.3297 26.4602 21.3297 26.2401L21.3297 24.4544C21.8067 24.2835 22.2194 23.9695 22.5112 23.5553C22.803 23.1411 22.9598 22.6468 22.9601 22.1401C22.9595 21.6337 22.8025 21.1398 22.5107 20.7259C22.2189 20.312 21.8065 19.9983 21.3297 19.8275L21.3297 10.6601C21.3313 10.5492 21.3105 10.439 21.2687 10.3362C21.2269 10.2334 21.1648 10.14 21.0863 10.0616C21.0077 9.98321 20.9142 9.92137 20.8114 9.87975C20.7085 9.83813 20.5983 9.81758 20.4873 9.81932Z" fill="url(#paint_linear_4)" fill-rule="nonzero" />
</svg>
