<svg viewBox="0 0 32 32" xmlns="http://www.w3.org/2000/svg" xmlns:xlink="http://www.w3.org/1999/xlink" width="32.000000" height="32.000000" fill="none">
	<defs>
		<g id="pixso_custom_effect_0">
			<effect x="0.000000" y="4.000000" visibility="visible" fill="rgb(0,0,0)" fill-opacity="0.25" effectType="dropShadow" stdDeviation="4" radius="0" />
		</g>
		<filter id="filter_0" width="40.009033" height="40.000000" x="-4.009033" y="0.000000" filterUnits="userSpaceOnUse" customEffect="url(#pixso_custom_effect_0)" color-interpolation-filters="sRGB">
			<feFlood flood-opacity="0" result="BackgroundImageFix" />
			<feOffset dx="0.000000" dy="4.000000" in="SourceAlpha" />
			<feGaussianBlur stdDeviation="1.33333337" />
			<feColorMatrix type="matrix" values="0 0 0 0 0 0 0 0 0 0 0 0 0 0 0 0 0 0 0.25 0 " />
			<feBlend result="effect_dropShadow_1" in2="BackgroundImageFix" mode="normal" />
			<feBlend result="shape" in="SourceGraphic" in2="effect_dropShadow_1" mode="normal" />
		</filter>
		<linearGradient id="paint_linear_0" x1="15.9955254" x2="15.9955254" y1="0" y2="32" gradientUnits="userSpaceOnUse">
			<stop stop-color="rgb(255,198,25)" offset="0" stop-opacity="1" />
			<stop stop-color="rgb(246,144,32)" offset="0.46875" stop-opacity="1" />
			<stop stop-color="rgb(234,66,42)" offset="1" stop-opacity="1" />
		</linearGradient>
	</defs>
	<rect id="icons8_enter 1" width="32.000000" height="32.000000" x="0.000000" y="0.000000" fill="rgb(255,255,255)" fill-opacity="0" />
	<g filter="url(#filter_0)">
		<path id="Vector" d="M8.32008 0C7.26763 0 6.40008 0.866833 6.40008 1.92L6.40008 14.08L7.68008 14.08L7.68008 1.92C7.68008 1.55877 7.95941 1.28 8.32008 1.28L30.0801 1.28C30.4407 1.28 30.7201 1.55877 30.7201 1.92L30.7201 30.08C30.7201 30.4403 30.4404 30.72 30.0801 30.72L8.32008 30.72C7.9598 30.72 7.68008 30.4403 7.68008 30.08L7.68008 17.92L6.40008 17.92L6.40008 30.08C6.40008 31.1328 7.26724 32 8.32008 32L30.0801 32C31.1329 32 32.0001 31.1328 32.0001 30.08L32.0001 1.92C32.0001 0.866833 31.1325 0 30.0801 0L8.32008 0ZM14.1076 8.38375C13.9804 8.38403 13.8561 8.42221 13.7507 8.49342C13.6453 8.56463 13.5635 8.66563 13.5157 8.78354C13.468 8.90145 13.4565 9.03091 13.4826 9.15541C13.5088 9.2799 13.5714 9.39378 13.6626 9.4825L19.5388 15.36L0.640082 15.36C0.555274 15.3588 0.471074 15.3745 0.392374 15.4061C0.313675 15.4377 0.242045 15.4847 0.181649 15.5442C0.121252 15.6038 0.073293 15.6747 0.0405584 15.753C0.00782388 15.8312 -0.0090332 15.9152 -0.0090332 16C-0.0090332 16.0848 0.00782388 16.1688 0.0405584 16.247C0.073293 16.3253 0.121252 16.3962 0.181649 16.4558C0.242045 16.5153 0.313675 16.5623 0.392374 16.5939C0.471074 16.6255 0.555274 16.6412 0.640082 16.64L19.5388 16.64L13.6613 22.5175C13.5999 22.5765 13.5509 22.6471 13.5171 22.7253C13.4833 22.8034 13.4655 22.8875 13.4646 22.9727C13.4637 23.0578 13.4799 23.1423 13.512 23.2211C13.5442 23.3 13.5918 23.3716 13.652 23.4318C13.7122 23.492 13.7839 23.5396 13.8627 23.5718C13.9415 23.604 14.026 23.6201 14.1111 23.6192C14.1963 23.6184 14.2804 23.6005 14.3586 23.5667C14.4367 23.533 14.5074 23.4839 14.5663 23.4225L21.9888 16L14.5676 8.5775C14.5078 8.51604 14.4363 8.46722 14.3572 8.43394C14.2782 8.40065 14.1933 8.38359 14.1076 8.38375Z" fill="url(#paint_linear_0)" fill-rule="nonzero" />
	</g>
</svg>
