<svg width="269.000000" height="273.000000" viewBox="0 0 269 273" fill="none" xmlns="http://www.w3.org/2000/svg" xmlns:xlink="http://www.w3.org/1999/xlink">
	<desc>
			Created with Pixso.
	</desc>
	<defs>
		<filter id="filter_51_1006_dd" x="105.000000" y="0.000000" width="56.000000" height="56.000000" filterUnits="userSpaceOnUse" color-interpolation-filters="sRGB">
			<feFlood flood-opacity="0" result="BackgroundImageFix"/>
			<feColorMatrix in="SourceAlpha" type="matrix" values="0 0 0 0 0 0 0 0 0 0 0 0 0 0 0 0 0 0 127 0" result="hardAlpha"/>
			<feOffset dx="0" dy="4"/>
			<feGaussianBlur stdDeviation="1.33333"/>
			<feComposite in2="hardAlpha" operator="out" k2="-1" k3="1"/>
			<feColorMatrix type="matrix" values="0 0 0 0 0 0 0 0 0 0 0 0 0 0 0 0 0 0 0.25 0"/>
			<feBlend mode="normal" in2="BackgroundImageFix" result="effect_dropShadow_1"/>
			<feBlend mode="normal" in="SourceGraphic" in2="effect_dropShadow_1" result="shape"/>
		</filter>
		<clipPath id="clip51_1006">
			<rect id="icons8_last_24_hours 1" rx="0.000000" width="47.000000" height="47.000000" transform="translate(109.500000 0.500000)" fill="white" fill-opacity="0"/>
		</clipPath>
		<radialGradient gradientTransform="translate(134 138) rotate(90) scale(122 122)" cx="0.000000" cy="0.000000" r="1.000000" id="paint_angular_51_1001_0" gradientUnits="userSpaceOnUse">
			<stop offset="0.489041" stop-color="#F69020" stop-opacity="0.000000"/>
			<stop offset="0.503497" stop-color="#FFC619"/>
		</radialGradient>
		<radialGradient gradientTransform="translate(134.5 138.5) rotate(90) scale(134.5 134.5)" cx="0.000000" cy="0.000000" r="1.000000" id="paint_angular_51_1002_0" gradientUnits="userSpaceOnUse">
			<stop offset="0.489041" stop-color="#FFC619" stop-opacity="0.000000"/>
			<stop offset="0.503497" stop-color="#FFC619"/>
		</radialGradient>
		<radialGradient gradientTransform="translate(134 139) rotate(90) scale(96 96)" cx="0.000000" cy="0.000000" r="1.000000" id="paint_angular_51_1003_0" gradientUnits="userSpaceOnUse">
			<stop offset="0.489041" stop-color="#F69020" stop-opacity="0.000000"/>
			<stop offset="0.503497" stop-color="#F69020"/>
		</radialGradient>
	</defs>
	<circle id="Ellipse 3" cx="134.000000" cy="138.000000" r="122.000000" fill="#FFC619" fill-opacity="0.190000"/>
	<circle id="Ellipse 5" cx="134.000000" cy="138.000000" r="122.000000" fill="#FFC619" fill-opacity="0"/>
	<circle id="Ellipse 5" cx="134.000000" cy="138.000000" r="118.500000" stroke="url(#paint_angular_51_1001_0)" stroke-opacity="0.660000" stroke-width="7.000000"/>
	<circle id="Ellipse 6" cx="134.500000" cy="138.500000" r="134.500000" fill="#FFC619" fill-opacity="0"/>
	<circle id="Ellipse 6" cx="134.500000" cy="138.500000" r="133.500000" stroke="url(#paint_angular_51_1002_0)" stroke-opacity="0.400000" stroke-width="2.000000"/>
	<circle id="Ellipse 7" cx="134.000000" cy="139.000000" r="96.000000" fill="#FFC619" fill-opacity="0"/>
	<circle id="Ellipse 7" cx="134.000000" cy="139.000000" r="95.000000" stroke="url(#paint_angular_51_1003_0)" stroke-opacity="0.400000" stroke-width="2.000000"/>
	<g filter="url(#filter_51_1006_dd)">
		<rect id="icons8_last_24_hours 1" rx="0.000000" width="47.000000" height="47.000000" transform="translate(109.500000 0.500000)" fill="#FFFFFF" fill-opacity="0"/>
		<g clip-path="url(#clip51_1006)">
			<path id="Vector" d="M116 24C116 33.4 123.6 41 133 41C142.39 41 150 33.4 150 24C150 14.6 142.39 7 133 7C123.6 7 116 14.6 116 24Z" fill="#131517" fill-opacity="1.000000" fill-rule="nonzero"/>
			<path id="Vector" d="M133 44C122 44 113 35 113 24C113 13 122 4 133 4C137.7 4 142.3 5.7 145.89 8.79L143.3 11.8C140.5 9.29 136.8 8 133 8C124.2 8 117 15.2 117 24C117 32.8 124.2 40 133 40L133 44Z" fill="#606571" fill-opacity="1.000000" fill-rule="nonzero"/>
			<path id="Vector" d="M136 12L128 6L136 0L136 12Z" fill="#FFC619" fill-opacity="1.000000" fill-rule="nonzero"/>
			<path id="Vector" d="M120 24C120 24.6 119.6 25 119 25L116 25L116 23L119 23C119.6 23 120 23.4 120 24ZM133 37C132.39 37 132 37.4 132 38L132 41L134 41L134 38C134 37.4 133.6 37 133 37ZM147 23C146.39 23 146 23.4 146 24C146 24.6 146.39 25 147 25L150 25L150 23L147 23Z" fill="#FFFFFF" fill-opacity="1.000000" fill-rule="nonzero"/>
			<path id="Vector" d="M133 44C122 44 113 35 113 24C113 19.29 114.7 14.7 117.8 11.1L120.8 13.7C118.3 16.5 117 20.2 117 24C117 32.8 124.2 40 133 40C141.8 40 149 32.8 149 24C149 15.2 141.8 8 133 8L133 4C144 4 153 13 153 24C153 35 144 44 133 44Z" fill="#FFC619" fill-opacity="1.000000" fill-rule="nonzero"/>
			<path id="Vector" d="M132 30L124 30L124 28.2L127.8 24.2C128.7 23.1 129.2 22.3 129.2 21.7C129.2 21.2 129.1 20.8 128.89 20.5C128.7 20.2 128.39 20.1 127.9 20.1C127.5 20.1 127.1 20.29 126.9 20.6C126.6 21 126.5 21.4 126.5 21.9L124 21.9C124 21.2 124.2 20.5 124.5 19.9C124.9 19.29 125.4 18.79 126 18.5C126.6 18.2 127.1 18 127.9 18C129.2 18 130.2 18.29 130.89 18.9C131.6 19.5 131.89 20.29 131.89 21.4C131.89 21.9 131.8 22.3 131.6 22.8C131.39 23.2 131.2 23.7 130.8 24.2C130.39 24.7 129.8 25.3 129 26.1L127.6 28L132 28L132 30ZM140.8 26L142 26L142 28L140.8 28L140.8 30L138 30L138 28L133.39 28L133.2 26.4L138 18L140.8 18L140.8 26ZM135.8 26L138 26L138 21.6L137.8 21.9L135.8 26Z" fill="#FFFFFF" fill-opacity="1.000000" fill-rule="nonzero"/>
		</g>
	</g>
</svg>
