<svg width="80.000000" height="80.000000" viewBox="0 0 80 80" fill="none" xmlns="http://www.w3.org/2000/svg" xmlns:xlink="http://www.w3.org/1999/xlink">
	<desc>
			Created with Pixso.
	</desc>
	<defs>
		<clipPath id="clip51_1128">
			<rect id="icons8_shirt 1" rx="0.000000" width="79.000000" height="79.000000" transform="translate(0.500000 0.500000)" fill="white" fill-opacity="0"/>
		</clipPath>
		<linearGradient x1="40.000000" y1="1.600098" x2="40.000000" y2="78.400101" id="paint_linear_51_1129_0" gradientUnits="userSpaceOnUse">
			<stop stop-color="#FFC619"/>
			<stop offset="0.489583" stop-color="#F69020"/>
			<stop offset="1.000000" stop-color="#EA422A"/>
		</linearGradient>
	</defs>
	<rect id="icons8_shirt 1" rx="0.000000" width="79.000000" height="79.000000" transform="translate(0.500000 0.500000)" fill="#FFFFFF" fill-opacity="0"/>
	<g clip-path="url(#clip51_1128)">
		<path id="Vector" d="M40 1.6C34.45 1.6 31.01 2.83 30.1 3.2C29.93 3.24 29.78 3.31 29.64 3.4C29.63 3.4 29.61 3.4 29.6 3.4C29.56 3.41 29.53 3.43 29.5 3.45C29.48 3.46 29.46 3.48 29.45 3.5C29.41 3.51 29.38 3.53 29.35 3.55C29.33 3.56 29.31 3.58 29.3 3.6C29.24 3.64 29.19 3.69 29.14 3.75C29.13 3.78 29.11 3.81 29.1 3.85C29.08 3.86 29.06 3.88 29.05 3.9C29.03 3.93 29.01 3.96 29 4L26.14 8.2L18.85 10.55C18.75 10.57 18.64 10.6 18.54 10.65C17.13 11.11 15.45 12.16 13.6 14.05C11.57 16.11 9.44 19.11 7.89 23.3C6.69 26.53 4.76 31.61 3.1 36.25C2.26 38.56 1.5 40.73 0.94 42.6C0.39 44.46 0 45.86 0 47.1L0 70.4C0 71.28 0.71 72 1.6 72L12.8 72C13.68 72 14.39 71.28 14.39 70.4L14.39 48.05C14.39 48.05 14.39 48.05 14.39 48C14.41 47.92 14.45 47.73 14.55 47.5C14.7 47.11 14.95 46.62 15.25 46.05C15.83 44.89 16.64 43.45 17.45 42.1C17.52 41.96 17.52 41.98 17.6 41.85L17.6 76.8C17.6 77.68 18.31 78.4 19.2 78.4L60.8 78.4C61.68 78.4 62.39 77.68 62.39 76.8L62.3 44.95L62.3 44.9L62.35 41.75C62.45 41.92 62.44 41.91 62.55 42.1C63.35 43.45 64.16 44.89 64.75 46.05C65.04 46.62 65.3 47.11 65.44 47.5C65.56 47.78 65.59 48.02 65.6 48.05L65.6 70.4C65.6 71.28 66.31 72 67.19 72L78.39 72C79.28 72 80 71.28 80 70.4L80 47.1C80 45.86 79.6 44.46 79.05 42.6C78.49 40.73 77.73 38.56 76.89 36.25C75.23 31.61 73.3 26.53 72.1 23.3C70.55 19.11 68.42 16.11 66.39 14.05C64.52 12.14 62.83 11.1 61.39 10.65C61.31 10.61 61.23 10.57 61.14 10.55L53.85 8.2L51.05 4.05C51.01 4 50.98 3.95 50.95 3.9C50.91 3.86 50.88 3.83 50.85 3.8C50.85 3.78 50.85 3.76 50.85 3.75C50.7 3.58 50.51 3.44 50.3 3.35C50.3 3.35 50.25 3.3 50.25 3.3C50.15 3.25 50.05 3.22 49.95 3.2C49.11 2.86 45.65 1.6 40 1.6ZM40 4.8C43.88 4.8 46.35 5.36 47.7 5.8C47.46 6.61 47.1 7.66 46.45 8.8C45.22 10.91 43.4 12.8 40 12.8C36.59 12.8 34.77 10.91 33.55 8.8C32.89 7.66 32.53 6.61 32.3 5.8C33.64 5.36 36.11 4.8 40 4.8ZM29.95 8.4C30.21 9.06 30.38 9.67 30.8 10.4C31.78 12.09 33.32 13.91 35.5 15L31.25 19.25L28.95 9.95L29.95 8.4ZM50.05 8.4L51.05 9.95L48.75 19.25L44.5 15C46.67 13.91 48.21 12.09 49.2 10.4C49.61 9.67 49.78 9.06 50.05 8.4ZM26.05 11.65L28.85 22.8C28.98 23.36 29.41 23.81 29.98 23.97C30.53 24.12 31.14 23.96 31.55 23.55L39.2 15.9C39.46 15.91 39.71 16 40 16C40.28 16 40.53 15.91 40.8 15.9L48.45 23.55C48.85 23.96 49.46 24.12 50.01 23.97C50.58 23.81 51.01 23.36 51.14 22.8L53.95 11.65L58.89 13.2C58.68 14.21 58.19 16.41 57.85 20.65C57.47 25.28 57.52 30.94 58.95 35.9C58.96 35.95 58.98 36 59 36.05C59 36.06 58.99 36.08 59 36.1C59.02 36.25 59.07 36.4 59.14 36.55C59.17 36.63 59.17 36.71 59.2 36.8L59.1 44.9L59.2 75.2L20.8 75.2L20.8 37C23.09 32.66 23.01 26.66 22.5 21.5C22.04 16.93 21.39 14.28 21.14 13.2L26.05 11.65ZM18.2 14.45C18.56 16.12 19.02 18.53 19.35 21.8C19.78 26.2 19.68 31.28 18.5 34.55C18.28 34.7 18.11 34.91 18 35.15C18 35.15 16.35 37.71 14.7 40.5C13.87 41.89 13.03 43.33 12.39 44.6C12.08 45.23 11.8 45.81 11.6 46.35C11.39 46.88 11.2 47.3 11.2 48L11.2 68.8L3.19 68.8L3.19 47.1C3.19 46.78 3.46 45.31 4 43.55C4.53 41.78 5.28 39.58 6.1 37.3C7.74 32.72 9.68 27.73 10.89 24.45C12.3 20.68 14.19 18.03 15.89 16.29C16.71 15.47 17.53 14.89 18.2 14.45ZM61.85 14.45C62.5 14.88 63.3 15.48 64.1 16.29C65.8 18.03 67.69 20.68 69.1 24.45C70.31 27.73 72.25 32.72 73.89 37.3C74.71 39.58 75.46 41.78 76 43.55C76.53 45.31 76.8 46.78 76.8 47.1L76.8 68.8L68.8 68.8L68.8 48C68.8 47.3 68.6 46.88 68.39 46.35C68.19 45.81 67.91 45.23 67.6 44.6C66.96 43.33 66.12 41.89 65.3 40.5C63.64 37.71 62 35.15 62 35.15C61.95 35.06 61.9 34.98 61.85 34.9C60.66 30.61 60.69 25.28 61.05 20.9C61.28 18.08 61.58 15.97 61.85 14.45Z" fill="url(#paint_linear_51_1129_0)" fill-opacity="1.000000" fill-rule="nonzero"/>
	</g>
</svg>
