<svg width="35.000000" height="35.000000" viewBox="0 0 35 35" fill="none" xmlns="http://www.w3.org/2000/svg" xmlns:xlink="http://www.w3.org/1999/xlink">
	<desc>
			Created with Pixso.
	</desc>
	<defs>
		<clipPath id="clip51_1461">
			<rect id="icons8_telegram_app 1" rx="0.000000" width="34.000000" height="34.000000" transform="translate(0.500000 0.500000)" fill="white" fill-opacity="0"/>
		</clipPath>
	</defs>
	<rect id="icons8_telegram_app 1" rx="0.000000" width="34.000000" height="34.000000" transform="translate(0.500000 0.500000)" fill="#FFFFFF" fill-opacity="0"/>
	<g clip-path="url(#clip51_1461)">
		<path id="Vector" d="M29.34 4.64C28.96 4.66 28.61 4.77 28.3 4.9C28.01 5.01 26.89 5.49 25.14 6.24C23.38 7 21.06 7.99 18.58 9.06C13.62 11.19 8.05 13.59 5.19 14.82C5.09 14.87 4.71 14.99 4.32 15.3C3.92 15.61 3.5 16.25 3.5 16.97C3.5 17.54 3.77 18.12 4.12 18.46C4.46 18.8 4.83 18.97 5.14 19.1C6.28 19.57 9.82 21.01 10.49 21.29C10.72 22.01 12 25.92 12.3 26.88C12.5 27.51 12.68 27.91 12.92 28.23C13.05 28.38 13.19 28.52 13.36 28.63C13.43 28.67 13.5 28.7 13.58 28.74L13.58 28.74C13.6 28.74 13.61 28.76 13.63 28.76C13.66 28.77 13.69 28.78 13.73 28.79C13.91 28.84 14.09 28.88 14.25 28.88C14.93 28.88 15.35 28.5 15.35 28.5L15.37 28.48L18.89 25.45L23.14 29.48C23.2 29.56 23.76 30.33 25 30.33C25.73 30.33 26.31 29.96 26.68 29.57C27.06 29.18 27.29 28.77 27.39 28.25L27.39 28.25C27.48 27.76 31.4 7.61 31.4 7.61L31.4 7.64C31.51 7.11 31.54 6.62 31.42 6.14C31.29 5.66 30.95 5.2 30.54 4.95C30.13 4.7 29.72 4.63 29.34 4.64ZM29.12 7.08C29.12 7.12 29.13 7.1 29.12 7.14L29.12 7.15L29.11 7.17C29.11 7.17 25.24 27.06 25.09 27.82C25.1 27.76 25.06 27.87 25.01 27.94C24.94 27.89 24.8 27.83 24.8 27.83L24.77 27.81L18.96 22.3L14.84 25.86L16.07 20.96C16.07 20.96 23.72 13.04 24.18 12.58C24.55 12.21 24.62 12.08 24.62 11.96C24.62 11.79 24.54 11.66 24.34 11.66C24.16 11.66 23.92 11.84 23.79 11.92C22.12 12.98 14.78 17.26 11.49 19.17C10.97 18.96 7.33 17.47 6.1 16.97C6.11 16.97 6.11 16.97 6.12 16.96C8.97 15.74 14.55 13.34 19.5 11.2C21.98 10.14 24.31 9.14 26.06 8.39C27.79 7.65 28.99 7.14 29.12 7.08Z" fill="#2C383F" fill-opacity="1.000000" fill-rule="nonzero"/>
	</g>
</svg>
